<?xml version="1.0" encoding="utf-8"?>
<!-- Generator: Adobe Illustrator 16.0.0, SVG Export Plug-In . SVG Version: 6.00 Build 0)  -->
<!DOCTYPE svg PUBLIC "-//W3C//DTD SVG 1.0//EN" "http://www.w3.org/TR/2001/REC-SVG-20010904/DTD/svg10.dtd">
<svg version="1.0" id="Layer_1" xmlns="http://www.w3.org/2000/svg" xmlns:xlink="http://www.w3.org/1999/xlink" x="0px" y="0px"
	 width="22px" height="28px" viewBox="0 0 22 28" enable-background="new 0 0 22 28" xml:space="preserve">
<path fill="#FFFFFF" d="M11,1C5.486,1,1,5.636,1,11.334c0,2.756,1.036,5.347,2.917,7.296c0.035,0.038,4.542,4.866,5.681,7.453
	C9.788,26.533,10.299,27,11,27s1.212-0.467,1.407-0.93c1.135-2.576,5.641-7.401,5.686-7.45C19.964,16.68,21,14.088,21,11.334
	C21,5.636,16.514,1,11,1L11,1z"/>
<path fill="#0A79BE" d="M11,2c-4.97,0-9,4.18-9,9.334c0,2.578,1.006,4.913,2.637,6.602c0,0,4.655,4.969,5.876,7.744
	c0,0,0.135,0.319,0.487,0.319s0.487-0.319,0.487-0.319c1.222-2.775,5.876-7.744,5.876-7.744C18.992,16.247,20,13.913,20,11.334
	C20,6.18,15.971,2,11,2z M11,14.5c-1.657,0-3-1.343-3-3s1.343-3,3-3s3,1.343,3,3S12.657,14.5,11,14.5z"/>
</svg>
